<?xml version="1.0" encoding="iso-8859-1"?>
<!-- Generator: Adobe Illustrator 18.0.0, SVG Export Plug-In . SVG Version: 6.00 Build 0)  -->
<!DOCTYPE svg PUBLIC "-//W3C//DTD SVG 1.1//EN" "http://www.w3.org/Graphics/SVG/1.1/DTD/svg11.dtd">
<svg version="1.1" id="Capa_1" xmlns="http://www.w3.org/2000/svg" xmlns:xlink="http://www.w3.org/1999/xlink" x="0px" y="0px"
	 viewBox="0 0 167.538 167.538" style="enable-background:new 0 0 167.538 167.538;" xml:space="preserve">
<g>
	<g>
		<path style="fill:#00A1AD;" d="M103.663,156.896c0,5.882-4.762,10.643-10.643,10.643c-3.966,0-7.416-2.163-9.247-5.382
			c-1.84,3.219-5.289,5.382-9.256,5.382c-5.88,0-10.643-4.761-10.643-10.643c0-5.881,4.763-10.652,10.643-10.652
			c0.684,0,1.35,0.065,1.988,0.194c3.116,0.583,5.742,2.533,7.268,5.196c1.655-2.912,4.642-4.975,8.137-5.325
			c0.37-0.047,0.74-0.065,1.109-0.065C98.901,146.244,103.663,151.015,103.663,156.896z"/>
		<rect x="76.506" y="46.779" style="fill:#00A1AD;" width="15.405" height="107.64"/>
		<path style="fill:#084057;" d="M127.769,44.004c0,7.509-1.886,14.573-5.206,20.759l-16.487,37.245
			c-0.434,1.249-0.971,2.441-1.6,3.588c-2.718,4.975-7.185,8.849-12.566,10.827c-2.534,0.935-5.28,1.443-8.137,1.443
			c-2.543,0-4.983-0.397-7.268-1.147c-6.279-2.015-11.392-6.593-14.138-12.501c-0.046-0.084-0.074-0.157-0.111-0.241l-0.314-0.72
			L44.375,63.579c-2.94-5.899-4.605-12.548-4.605-19.575C39.77,19.705,59.474,0,83.774,0C108.074,0,127.769,19.705,127.769,44.004z"
			/>
	</g>
	<circle style="opacity:0.3;fill:#084057;" cx="84.21" cy="24.047" r="3.464"/>
	<circle style="opacity:0.3;fill:#084057;" cx="65.961" cy="46.076" r="3.464"/>
	<circle style="opacity:0.3;fill:#084057;" cx="59.853" cy="29.109" r="2.348"/>
	<circle style="opacity:0.3;fill:#084057;" cx="109.377" cy="29.109" r="2.349"/>
	<circle style="opacity:0.3;fill:#084057;" cx="84.21" cy="92.201" r="2.349"/>
	<circle style="opacity:0.3;fill:#084057;" cx="84.21" cy="49.538" r="2.349"/>
	<circle style="opacity:0.3;fill:#084057;" cx="71.774" cy="81.387" r="2.349"/>
	<circle style="opacity:0.3;fill:#084057;" cx="96.635" cy="81.387" r="2.349"/>
	<circle style="opacity:0.3;fill:#084057;" cx="102.448" cy="46.076" r="3.464"/>
	<circle style="opacity:0.3;fill:#084057;" cx="84.21" cy="67.715" r="3.464"/>
</g>
<g>
</g>
<g>
</g>
<g>
</g>
<g>
</g>
<g>
</g>
<g>
</g>
<g>
</g>
<g>
</g>
<g>
</g>
<g>
</g>
<g>
</g>
<g>
</g>
<g>
</g>
<g>
</g>
<g>
</g>
</svg>
