<?xml version="1.0" encoding="utf-8"?>
<!-- Generator: Adobe Illustrator 19.0.0, SVG Export Plug-In . SVG Version: 6.00 Build 0)  -->
<svg version="1.1" id="hotdog" xmlns="http://www.w3.org/2000/svg" xmlns:xlink="http://www.w3.org/1999/xlink" x="0px" y="0px"
	 viewBox="-187 279.1 235.9 235.9" style="enable-background:new -187 279.1 235.9 235.9;" xml:space="preserve">
<style type="text/css">
	.st0{fill:#FFAC38;}
	.st1{fill:#FFCE87;}
	.st2{fill:#084057;}
	.st3{fill:#FA5138;}
</style>
<g>
	<path class="st0" d="M48.9,397.1c0,5.7-1.3,11.1-3.6,16c-6,12.5-18.7,21.1-33.5,21.1h-161.7c-14.8,0-27.5-8.6-33.5-21.1
		c-2.3-4.8-3.6-10.3-3.6-16s1.3-11.1,3.6-16c1.8-3.8,4.3-7.3,7.3-10.2c6.7-6.7,16-10.9,26.2-10.9H11.8c14.8,0,27.5,8.6,33.5,21.1
		C47.6,385.9,48.9,391.3,48.9,397.1z"/>
	<path class="st1" d="M48.9,397.1c0,5.7-1.3,11.1-3.6,16h-228.6c-2.3-4.8-3.6-10.3-3.6-16s1.3-11.1,3.6-16H45.3
		C47.6,385.9,48.9,391.3,48.9,397.1z"/>
	<path class="st2" d="M5.1,397.1c0,6.4-5.2,11.6-11.6,11.6h-125.3c-6.4,0-11.6-5.2-11.6-11.6l0,0c0-6.4,5.2-11.6,11.6-11.6H-6.4
		C0,385.5,5.1,390.7,5.1,397.1L5.1,397.1z"/>
	<g>
		<path class="st3" d="M-22.7,396c-7.4,0-11.2-4.5-14.3-8c-2.9-3.3-5.1-6-9.8-6s-6.9,2.6-9.8,6c-3.1,3.6-6.9,8-14.3,8
			c-7.4,0-11.2-4.5-14.3-8c-2.9-3.3-5.1-6-9.8-6c-4.6,0-6.9,2.6-9.8,6c-3.1,3.6-6.9,8-14.3,8c-7.4,0-11.2-4.5-14.3-8
			c-2.9-3.3-5.1-6-9.8-6v-6c7.4,0,11.2,4.5,14.3,8c2.9,3.3,5.1,6,9.8,6c4.6,0,6.9-2.6,9.8-6c3.1-3.6,6.9-8,14.3-8
			c7.4,0,11.2,4.5,14.3,8c2.9,3.3,5.1,6,9.8,6c4.6,0,6.9-2.6,9.8-6c3.1-3.6,6.9-8,14.3-8s11.2,4.5,14.3,8c2.9,3.3,5.1,6,9.8,6
			c4.7,0,6.9-2.6,9.8-6c3.1-3.6,6.9-8,14.3-8v6c-4.7,0-6.9,2.6-9.8,6C-11.5,391.6-15.3,396-22.7,396z"/>
	</g>
</g>
</svg>
