<?xml version="1.0" encoding="iso-8859-1"?>
<!-- Generator: Adobe Illustrator 18.0.0, SVG Export Plug-In . SVG Version: 6.00 Build 0)  -->
<!DOCTYPE svg PUBLIC "-//W3C//DTD SVG 1.1//EN" "http://www.w3.org/Graphics/SVG/1.1/DTD/svg11.dtd">
<svg version="1.1" id="Capa_1" xmlns="http://www.w3.org/2000/svg" xmlns:xlink="http://www.w3.org/1999/xlink" x="0px" y="0px"
	 viewBox="0 0 174.39 174.39" style="enable-background:new 0 0 174.39 174.39;" xml:space="preserve">
<g>
	<path style="fill:#FA5138;" d="M115.972,28.77c0,2.22-0.25,4.37-0.729,6.44c-0.91,4-2.65,7.67-5.03,10.83
		c-2.83,3.76-6.55,6.8-10.85,8.81c-1.271,0.6-2.59,1.1-3.96,1.5c-2.5,0.75-5.15,1.16-7.9,1.18c-0.1,0.01-0.2,0.01-0.3,0.01
		c-0.101,0-0.2,0-0.3-0.01c-0.761,0-1.5-0.04-2.24-0.11c-12.54-1.09-22.771-10.22-25.51-22.21c-0.48-2.07-0.73-4.22-0.73-6.44
		C58.422,12.88,71.313,0,87.202,0C103.092,0,115.972,12.88,115.972,28.77z"/>
	<path style="fill:#FFAC38;" d="M87.202,61.52c0,3.47-0.67,6.78-1.89,9.81c-0.221,0.56-0.471,1.12-0.73,1.66
		c-0.07,0.14-0.14,0.28-0.21,0.42c-0.6,1.19-1.29,2.33-2.06,3.4c-1.711,2.41-3.811,4.51-6.221,6.21c-0.22,0.17-0.45,0.33-0.68,0.48
		c-0.88,0.59-1.811,1.13-2.771,1.61c-3.55,1.79-7.569,2.79-11.819,2.79c-1.681,0-3.311-0.16-4.9-0.46
		c-2.28-0.42-4.46-1.14-6.49-2.12c-3.939-1.89-7.34-4.72-9.899-8.22c-0.62-0.85-1.19-1.73-1.71-2.66c-0.28-0.48-0.54-0.98-0.78-1.49
		l-0.01-0.02c-0.25-0.52-0.49-1.06-0.7-1.6c-1.22-3.03-1.89-6.34-1.89-9.81c0-14,10.92-25.46,24.71-26.31
		c0.55-0.04,1.109-0.06,1.67-0.06c12.1,0,22.29,8.14,25.399,19.24c0.29,1.02,0.521,2.07,0.681,3.14
		C87.102,58.83,87.202,60.16,87.202,61.52z"/>
	<circle style="fill:#FFAC38;" cx="113.572" cy="61.522" r="26.375"/>
	<polygon style="fill:#084057;" points="138.872,71.33 138.733,71.61 136.752,75.57 135.292,78.47 129.262,90.5 127.802,93.41 
		121.443,106.11 119.983,109.02 119.582,109.8 115.182,118.58 113.613,121.71 112.162,124.62 105.792,137.31 104.332,140.22 
		97.972,152.91 92.392,164.04 90.332,168.16 88.872,171.06 87.202,174.39 85.483,170.95 84.023,168.04 82.182,164.38 76.452,152.94 
		70.082,140.25 68.622,137.34 62.262,124.65 60.802,121.74 59.172,118.49 54.762,109.7 54.432,109.05 52.972,106.14 46.613,93.45 
		45.153,90.54 38.792,77.84 37.332,74.93 35.613,71.51 35.523,71.33 	"/>
	<circle style="fill:#FFFFFF;" cx="87.197" cy="8.955" r="2.399"/>
	<circle style="fill:#FFFFFF;" cx="72.964" cy="25.207" r="3.539"/>
	<circle style="fill:#FFFFFF;" cx="101.42" cy="25.207" r="3.539"/>
	<path style="fill:#FFFFFF;" d="M134.632,71.33l-1.06,1.06l-1.061-1.06h-4.359l3.239,3.24l-9.029,9.03l-9.53-9.52l2.75-2.75h-4.37
		l-0.56,0.56l-0.101-0.1l-0.46-0.46h-4.38l2.75,2.75l-8.58,8.57l-0.95,0.95l-0.449-0.45l-2.71-2.71l-3.811-3.81l-2.55-2.55
		l0.64-0.64l2.11-2.11h-4.38l-0.561,0.56l-0.02-0.02l-0.54-0.54h-4.37l2.75,2.75l-0.46,0.46l-2.27,2.27l-6.221,6.21l-0.58,0.58
		l-0.1-0.1l-9.43-9.42l2.75-2.75h-4.37l-0.561,0.56l-0.56-0.56h-4.38l2.75,2.75l-9.53,9.52l-9.52-9.52l2.75-2.75h-4.381l-0.56,0.56
		l-0.56-0.56h-4.29l0.09,0.18l1.42,1.42l0.01,0.02l1.14,1.13l-0.359,0.36l-0.49,0.49l1.46,2.91l0.74-0.74l0.84-0.84l9.06,9.06
		l0.471,0.47l-4.75,4.75l1.46,2.91l5.47-5.48l9.53,9.53l-8.641,8.64l1.46,2.91l9.37-9.36l9.521,9.52l-9.521,9.53l-9.04-9.04
		l4.41,8.79l2.441,2.44l-0.811,0.81l1.46,2.91l1.54-1.54l9.521,9.53l-4.7,4.7l1.46,2.91l5.43-5.42l9.53,9.52l-8.59,8.59l5.729,11.44
		l2.75,2.75l-0.909,0.91l1.46,2.91l1.64-1.64l1.75,1.75l1.46-2.9l-1.03-1.03l3.09-3.09l5.58-11.13l-8.56-8.56l9.52-9.52l5.4,5.39
		l1.46-2.91l-4.67-4.67l9.53-9.53l1.51,1.51l1.45-2.91l-0.78-0.78l2.35-2.35l4.4-8.78l-8.93,8.94l-9.53-9.53l9.53-9.52l9.33,9.33
		l1.46-2.91l-8.61-8.61l9.53-9.53l5.439,5.44l1.46-2.91l-4.71-4.71l9.03-9.03l1.71,1.71l1.46-2.9l-0.53-0.53l-0.46-0.46l1.551-1.55
		l1.42-1.42l0.14-0.28H134.632z M84.582,78.9l2.62-2.62l0.02-0.02l8.551,8.55l0.979,0.98l-0.979,0.98l-8.551,8.55l-0.02-0.02
		l-9.51-9.51L84.582,78.9z M87.202,99.71l0.02-0.02l9.53,9.52l-9.53,9.53l-0.02-0.02l-9.51-9.51L87.202,99.71z M55.922,87.44
		l-1.649-1.65l9.529-9.53l8.84,8.85l0.681,0.68l-9.521,9.53L55.922,87.44z M65.983,97.5l9.529-9.53l9.53,9.53l-9.53,9.53
		L65.983,97.5z M65.983,120.93l9.529-9.53l9.53,9.53l-9.53,9.52L65.983,120.93z M96.372,155.69l-9.25,9.25l-9.15-9.15l9.23-9.23
		l0.02-0.02L96.372,155.69z M87.222,142.17l-0.02-0.02l-9.51-9.51l9.51-9.51l0.02-0.02l9.53,9.53L87.222,142.17z M108.462,120.93
		l-9.53,9.52l-9.52-9.52l9.52-9.53L108.462,120.93z M98.932,107.03l-9.52-9.53l6.34-6.34l3.18-3.19l9.53,9.53L98.932,107.03z
		 M110.653,95.32l-9.53-9.53l0.78-0.78l8.649-8.65l0.101-0.1l9.519,9.53l-1.63,1.63L110.653,95.32z"/>
	<path style="fill:#FFAC38;" d="M92.792,90.712c0,3.089-2.505,5.595-5.595,5.595l0,0c-3.091,0-5.595-2.506-5.595-5.595V58.344
		c0-3.091,2.504-5.595,5.595-5.595l0,0c3.09,0,5.595,2.504,5.595,5.595V90.712z"/>
	<path style="fill:#FFAC38;" d="M110.553,80.323c0,3.089-2.505,5.595-5.594,5.595l0,0c-3.091,0-5.596-2.505-5.596-5.595V47.955
		c0-3.091,2.505-5.595,5.596-5.595l0,0c3.089,0,5.594,2.504,5.594,5.595V80.323z"/>
</g>
<g>
</g>
<g>
</g>
<g>
</g>
<g>
</g>
<g>
</g>
<g>
</g>
<g>
</g>
<g>
</g>
<g>
</g>
<g>
</g>
<g>
</g>
<g>
</g>
<g>
</g>
<g>
</g>
<g>
</g>
</svg>
