<?xml version="1.0" encoding="iso-8859-1"?>
<!-- Generator: Adobe Illustrator 18.0.0, SVG Export Plug-In . SVG Version: 6.00 Build 0)  -->
<!DOCTYPE svg PUBLIC "-//W3C//DTD SVG 1.1//EN" "http://www.w3.org/Graphics/SVG/1.1/DTD/svg11.dtd">
<svg version="1.1" id="Capa_1" xmlns="http://www.w3.org/2000/svg" xmlns:xlink="http://www.w3.org/1999/xlink" x="0px" y="0px"
	 viewBox="0 0 167.42 167.42" style="enable-background:new 0 0 167.42 167.42;" xml:space="preserve">
<g>
	<path style="fill:#084057;" d="M97.305,23.229v120.62c0,5.62-4.56,10.17-10.18,10.17h-6.84c-5.62,0-10.17-4.55-10.17-10.17V23.229
		c0-5.619,4.55-10.18,10.17-10.18h6.84C92.745,13.05,97.305,17.61,97.305,23.229z"/>
	<polygon style="fill:#084057;" points="92.196,0 87.945,7.35 84.655,13.05 83.765,14.59 83.705,14.689 82.755,13.05 79.465,7.35 
		75.225,0 	"/>
	<polygon style="fill:#084057;" points="92.196,167.42 75.225,167.42 79.465,160.08 82.965,154.02 83.705,152.73 83.765,152.83 
		84.445,154.02 87.945,160.08 	"/>
	<path style="opacity:0.7;fill:#FFFFFF;" d="M83.765,0v167.42h-8.54l4.24-7.34l3.5-6.061h-2.68c-5.62,0-10.17-4.55-10.17-10.17
		V23.229c0-5.619,4.55-10.18,10.17-10.18h2.47l-3.29-5.7L75.225,0H83.765z"/>
</g>
<g>
</g>
<g>
</g>
<g>
</g>
<g>
</g>
<g>
</g>
<g>
</g>
<g>
</g>
<g>
</g>
<g>
</g>
<g>
</g>
<g>
</g>
<g>
</g>
<g>
</g>
<g>
</g>
<g>
</g>
</svg>
