<?xml version="1.0" encoding="iso-8859-1"?>
<!-- Generator: Adobe Illustrator 18.0.0, SVG Export Plug-In . SVG Version: 6.00 Build 0)  -->
<!DOCTYPE svg PUBLIC "-//W3C//DTD SVG 1.1//EN" "http://www.w3.org/Graphics/SVG/1.1/DTD/svg11.dtd">
<svg version="1.1" id="Capa_1" xmlns="http://www.w3.org/2000/svg" xmlns:xlink="http://www.w3.org/1999/xlink" x="0px" y="0px"
	 viewBox="0 0 262.31 262.31" style="enable-background:new 0 0 262.31 262.31;" xml:space="preserve">
<g>
	<g>
		<rect x="127.61" y="48.33" style="fill:#084057;" width="7.7" height="127.35"/>
		<polygon style="fill:#084057;" points="127.307,47.958 132.752,53.401 181.197,4.957 175.267,0 		"/>
		<polygon style="fill:#FFAC38;" points="170.91,137.48 91.41,137.48 95.67,118.62 96.701,114.05 99.71,100.69 162.6,100.69 
			165.62,114.05 166.65,118.62 		"/>
		<polygon style="fill:#FA5138;" points="170.8,137.48 170.25,142.05 155.781,262.31 106.54,262.31 92.07,142.05 91.52,137.48 		"/>
		<rect x="80.69" y="118.62" style="fill:#FFAC38;" width="100.931" height="18.86"/>
	</g>
	<polygon style="fill:#FFCE87;" points="170.8,137.48 170.25,142.05 92.07,142.05 91.52,137.48 	"/>
	<polygon style="fill:#FFCE87;" points="166.65,118.62 95.67,118.62 96.701,114.05 165.62,114.05 	"/>
</g>
<g>
</g>
<g>
</g>
<g>
</g>
<g>
</g>
<g>
</g>
<g>
</g>
<g>
</g>
<g>
</g>
<g>
</g>
<g>
</g>
<g>
</g>
<g>
</g>
<g>
</g>
<g>
</g>
<g>
</g>
</svg>
