<?xml version="1.0" encoding="iso-8859-1"?>
<!-- Generator: Adobe Illustrator 18.0.0, SVG Export Plug-In . SVG Version: 6.00 Build 0)  -->
<!DOCTYPE svg PUBLIC "-//W3C//DTD SVG 1.1//EN" "http://www.w3.org/Graphics/SVG/1.1/DTD/svg11.dtd">
<svg version="1.1" id="Capa_1" xmlns="http://www.w3.org/2000/svg" xmlns:xlink="http://www.w3.org/1999/xlink" x="0px" y="0px"
	 viewBox="0 0 136.031 136.031" style="enable-background:new 0 0 136.031 136.031;" xml:space="preserve">
<g>
	<path style="fill:#FFAC38;" d="M135.9,64.031c-4.25,0.38-6.4,3.85-7.86,6.2c-1.36,2.189-1.981,2.97-2.76,2.97
		c-0.8,0-1.42-0.78-2.78-2.97c-0.32-0.511-0.66-1.07-1.06-1.641c-0.141-0.199-0.271-0.39-0.42-0.58
		c-0.171-0.229-0.351-0.46-0.551-0.689c-0.19-0.23-0.39-0.46-0.6-0.67c-0.21-0.22-0.43-0.431-0.66-0.63
		c-0.03-0.03-0.06-0.051-0.09-0.08c-0.18-0.15-0.36-0.29-0.561-0.44c-0.47-0.34-1-0.649-1.569-0.89
		c-0.11-0.05-0.23-0.101-0.351-0.141c-0.229-0.09-0.479-0.17-0.729-0.229c-0.25-0.07-0.51-0.12-0.78-0.17
		c-0.13-0.01-0.27-0.03-0.41-0.05c-0.29-0.021-0.58-0.04-0.88-0.04c-4.77,0-7.1,3.76-8.649,6.25c-1.36,2.189-1.98,2.97-2.761,2.97
		c-0.8,0-1.42-0.78-2.77-2.97c-1.49-2.41-3.71-5.99-8.17-6.221c0.229,1.301,0.34,2.641,0.34,4.011c0,1.05-0.07,2.069-0.2,3.08
		C90.15,82.661,80.35,91.641,68.44,91.84c-0.141,0.011-0.28,0.011-0.42,0.011c-12.051,0-22.011-8.95-23.601-20.551
		c-0.149-1.069-0.229-2.159-0.229-3.279c0-1.36,0.109-2.69,0.34-3.99c-4.24,0.38-6.391,3.85-7.851,6.2
		c-1.359,2.189-1.979,2.97-2.76,2.97c-0.79,0-1.41-0.78-2.77-2.97c-1.54-2.49-3.87-6.25-8.66-6.25c-4.771,0-7.101,3.76-8.641,6.25
		c-1.359,2.189-1.989,2.97-2.77,2.97c-0.78,0-1.41-0.78-2.771-2.97c-1.489-2.41-3.72-6-8.18-6.221C0.04,65.331,0,66.67,0,68.021
		C0,69.01,0.03,70,0.07,70.981c1.55,36.189,31.37,65.05,67.95,65.05h0.42c36.319-0.22,65.88-28.91,67.51-64.86
		c0.06-1.05,0.08-2.1,0.08-3.149C136.03,66.681,136,65.351,135.9,64.031z"/>
	<path style="fill:#FA5138;" d="M135.9,64.031c-4.25,0.38-6.4,3.85-7.86,6.2c-1.36,2.189-1.981,2.97-2.76,2.97
		c-0.8,0-1.42-0.78-2.78-2.97c-0.32-0.511-0.66-1.07-1.06-1.641c-0.141-0.199-0.271-0.39-0.42-0.58
		c-0.171-0.229-0.351-0.46-0.551-0.689c-0.19-0.23-0.39-0.46-0.6-0.67c-0.21-0.22-0.43-0.431-0.66-0.63
		c-0.03-0.03-0.06-0.051-0.09-0.08c-0.18-0.15-0.36-0.29-0.561-0.44c-0.47-0.34-1-0.649-1.569-0.89
		c-0.11-0.05-0.23-0.101-0.351-0.141c-0.229-0.09-0.479-0.17-0.729-0.229c-0.25-0.07-0.51-0.13-0.78-0.17
		c-0.13-0.01-0.27-0.03-0.41-0.05c-0.29-0.021-0.58-0.04-0.88-0.04c-4.77,0-7.1,3.76-8.649,6.25c-1.36,2.189-1.98,2.97-2.761,2.97
		c-0.8,0-1.42-0.78-2.77-2.97c-1.49-2.41-3.71-5.99-8.17-6.221C89.6,52.88,80.03,44.391,68.44,44.201
		c-0.141-0.01-0.28-0.01-0.42-0.01c-11.811,0-21.591,8.58-23.49,19.84c-4.24,0.38-6.391,3.85-7.851,6.2
		c-1.359,2.189-1.979,2.97-2.76,2.97c-0.79,0-1.41-0.78-2.77-2.97c-1.54-2.49-3.87-6.25-8.66-6.25c-4.771,0-7.101,3.76-8.641,6.25
		c-1.359,2.189-1.989,2.97-2.77,2.97c-0.78,0-1.41-0.78-2.771-2.97c-1.489-2.41-3.72-6-8.18-6.221C2.19,28.321,31.8,0,68.02,0h0.42
		C104.47,0.22,133.86,28.47,135.9,64.031z"/>
	<path style="fill:#FA5138;" d="M44.19,68.021c0,1.12,0.08,2.21,0.229,3.279c-0.479,0.44-1.04,1.25-1.86,2.57
		c-1.529,2.49-3.859,6.25-8.64,6.25c-4.79,0-7.12-3.76-8.649-6.25c-1.36-2.189-1.98-2.97-2.78-2.97c-0.78,0-1.4,0.78-2.76,2.97
		c-1.54,2.49-3.86,6.25-8.65,6.25c-4.78,0-7.11-3.76-8.64-6.25c-1.12-1.8-1.75-2.65-2.37-2.89C0.03,70,0,69.01,0,68.021
		c0-1.351,0.04-2.69,0.13-4.011c4.46,0.221,6.69,3.811,8.18,6.221c1.36,2.189,1.99,2.97,2.771,2.97c0.78,0,1.41-0.78,2.77-2.97
		c1.54-2.49,3.87-6.25,8.641-6.25c4.79,0,7.12,3.76,8.66,6.25c1.359,2.189,1.979,2.97,2.77,2.97c0.78,0,1.4-0.78,2.76-2.97
		c1.46-2.351,3.61-5.82,7.851-6.2C44.3,65.331,44.19,66.661,44.19,68.021z"/>
	<path style="fill:#FA5138;" d="M136.031,68.018c0,1.05-0.022,2.099-0.081,3.148c-0.53,0.391-1.107,1.222-2.028,2.708
		c-1.533,2.489-3.862,6.248-8.646,6.248s-7.113-3.759-8.658-6.248c-1.359-2.191-1.981-2.974-2.778-2.974
		c-0.783,0-1.406,0.782-2.767,2.974c-1.532,2.489-3.862,6.248-8.646,6.248c-4.783,0-7.112-3.759-8.657-6.248
		c-0.99-1.603-1.59-2.443-2.144-2.778c0.138-1.002,0.208-2.028,0.208-3.078c0-1.371-0.115-2.708-0.347-4.012
		c4.462,0.231,6.688,3.816,8.174,6.226c1.349,2.19,1.971,2.974,2.766,2.974c0.785,0,1.407-0.783,2.768-2.974
		c1.545-2.491,3.874-6.248,8.646-6.248c4.784,0,7.113,3.757,8.657,6.248c1.361,2.19,1.983,2.974,2.779,2.974
		c0.783,0,1.405-0.783,2.767-2.974c1.452-2.352,3.608-5.82,7.861-6.201C135.996,65.354,136.031,66.681,136.031,68.018z"/>
	<circle style="fill:#084057;" cx="68.017" cy="13.865" r="3.747"/>
	<circle style="fill:#084057;" cx="48.281" cy="37.688" r="3.747"/>
	<circle style="fill:#FFFFFF;" cx="41.674" cy="19.339" r="2.54"/>
	<circle style="fill:#FFFFFF;" cx="95.234" cy="19.339" r="2.54"/>
	<circle style="fill:#FFFFFF;" cx="22.269" cy="37.688" r="3.747"/>
	<circle style="fill:#FFFFFF;" cx="34.181" cy="65.712" r="2.158"/>
	<circle style="fill:#084057;" cx="10.143" cy="65.712" r="3.747"/>
	<circle style="fill:#FFFFFF;" cx="87.741" cy="37.688" r="3.747"/>
	<circle style="fill:#084057;" cx="113.753" cy="37.688" r="3.747"/>
	<circle style="fill:#FFFFFF;" cx="101.842" cy="65.712" r="2.421"/>
	<circle style="fill:#FFFFFF;" cx="118.068" cy="65.712" r="3.747"/>
	<path style="fill:#FFAC38;" d="M68.015,94.773c-14.689,0-26.64-11.95-26.64-26.64c0-14.689,11.95-26.64,26.64-26.64
		c14.689,0,26.64,11.95,26.64,26.64C94.654,82.823,82.704,94.773,68.015,94.773z"/>
	<circle style="fill:#FFFFFF;" cx="68.015" cy="68.133" r="23.64"/>
</g>
<g>
</g>
<g>
</g>
<g>
</g>
<g>
</g>
<g>
</g>
<g>
</g>
<g>
</g>
<g>
</g>
<g>
</g>
<g>
</g>
<g>
</g>
<g>
</g>
<g>
</g>
<g>
</g>
<g>
</g>
</svg>
