<?xml version="1.0" encoding="iso-8859-1"?>
<!-- Generator: Adobe Illustrator 18.0.0, SVG Export Plug-In . SVG Version: 6.00 Build 0)  -->
<!DOCTYPE svg PUBLIC "-//W3C//DTD SVG 1.1//EN" "http://www.w3.org/Graphics/SVG/1.1/DTD/svg11.dtd">
<svg version="1.1" id="Capa_1" xmlns="http://www.w3.org/2000/svg" xmlns:xlink="http://www.w3.org/1999/xlink" x="0px" y="0px"
	 viewBox="0 0 172.088 172.088" style="enable-background:new 0 0 172.088 172.088;" xml:space="preserve">
<g>
	<path style="fill:#FFAC38;" d="M172.088,87.112H2.552c0-46.815,37.948-84.772,84.773-84.772
		C134.14,2.339,172.088,40.296,172.088,87.112z"/>
	<path style="fill:#FFAC38;" d="M172.088,133.114c0,10.097-2.303,24.984-11.938,32.363c-2.875,2.2-6.408,3.735-10.726,4.263
		c-0.019,0-0.046,0.009-0.065,0.009H22.839c-0.101,0-0.203,0-0.305-0.009c-3.403-0.083-6.38-1.701-8.923-4.263
		c-7.332-7.389-11.059-22.691-11.059-32.363H172.088z"/>
	<path style="fill:#084057;" d="M172.088,112.984c0,7.416-6.001,13.426-13.417,13.426H13.417C6,126.41,0,120.4,0,112.984
		c0-3.698,1.497-7.056,3.93-9.487c2.422-2.423,5.779-3.93,9.487-3.93h145.255c0.222,0,0.444,0.01,0.666,0.019
		C166.438,99.928,172.088,105.799,172.088,112.984z"/>
	<rect x="13.416" y="87.112" style="fill:#00A1AD;" width="145.893" height="7.342"/>
	<rect x="13.417" y="126.41" style="fill:#FA5138;" width="62.507" height="6.704"/>
	<rect x="96.8" y="126.405" style="fill:#FA5138;" width="62.513" height="6.711"/>
	<polygon style="fill:#FFAC38;" points="77.478,99.57 118.423,117.299 159.369,99.57 	"/>
	<rect x="77.477" y="94.454" style="fill:#FFAC38;" width="81.832" height="5.113"/>
	<circle style="fill:#FA5138;" cx="86.051" cy="33.164" r="4.153"/>
	<circle style="fill:#FA5138;" cx="64.17" cy="59.575" r="4.153"/>
	<circle style="fill:#FFFFFF;" cx="56.847" cy="39.234" r="2.815"/>
	<circle style="fill:#FFFFFF;" cx="116.222" cy="39.234" r="2.815"/>
	<circle style="fill:#FFFFFF;" cx="35.333" cy="59.575" r="4.153"/>
	<circle style="fill:#FFFFFF;" cx="107.915" cy="59.575" r="4.153"/>
	<circle style="fill:#FA5138;" cx="136.75" cy="59.575" r="4.153"/>
	<path style="fill:#FFCE87;" d="M160.15,165.477c-2.875,2.2-6.408,3.735-10.726,4.263H22.534c-3.403-0.083-6.38-1.701-8.923-4.263
		H160.15z"/>
	<rect x="13.416" y="87.112" style="fill:#FFCE87;" width="145.893" height="4.263"/>
	<rect x="13.416" y="126.41" style="fill:#FFCE87;" width="145.893" height="4.263"/>
</g>
<g>
</g>
<g>
</g>
<g>
</g>
<g>
</g>
<g>
</g>
<g>
</g>
<g>
</g>
<g>
</g>
<g>
</g>
<g>
</g>
<g>
</g>
<g>
</g>
<g>
</g>
<g>
</g>
<g>
</g>
</svg>
