<?xml version="1.0" encoding="iso-8859-1"?>
<!-- Generator: Adobe Illustrator 18.0.0, SVG Export Plug-In . SVG Version: 6.00 Build 0)  -->
<!DOCTYPE svg PUBLIC "-//W3C//DTD SVG 1.1//EN" "http://www.w3.org/Graphics/SVG/1.1/DTD/svg11.dtd">
<svg version="1.1" id="Capa_1" xmlns="http://www.w3.org/2000/svg" xmlns:xlink="http://www.w3.org/1999/xlink" x="0px" y="0px"
	 viewBox="0 0 100.882 100.882" style="enable-background:new 0 0 100.882 100.882;" xml:space="preserve">
<g>
	<path style="fill:#FFAC38;" d="M100.882,100.881H0.002V0.001C55.722,0.001,100.882,45.171,100.882,100.881z"/>
	<path style="fill:#FFCE87;" d="M90.882,100.881H0.002v-90.88C50.112,10.001,90.882,50.771,90.882,100.881z"/>
	<path style="fill:#FFCE87;" d="M85.879,100.878H0V14.998C47.359,14.998,85.879,53.528,85.879,100.878z"/>
	<g>
		<path style="fill:#FA5138;" d="M45.032,45.201h-30.22c0.97-7.48,7.369-13.25,15.109-13.25
			C37.662,31.951,44.062,37.721,45.032,45.201z"/>
		<path style="fill:#FA6A55;" d="M43.022,45.201h-26.2c0.97-6.36,6.47-11.25,13.1-11.25C36.552,33.951,42.052,38.841,43.022,45.201z
			"/>
	</g>
	<circle style="fill:#00A1AD;" cx="23.756" cy="69.048" r="6.167"/>
	<path style="fill:#084057;" d="M10.692,81.674c-3.051,0-5.525,2.473-5.525,5.524c0,3.052,2.474,5.524,5.525,5.524
		c3.052,0,5.525-2.473,5.525-5.524C16.218,84.147,13.744,81.674,10.692,81.674z M10.692,89.556c-1.302,0-2.358-1.055-2.358-2.357
		c0-1.303,1.056-2.357,2.358-2.357c1.303,0,2.358,1.055,2.358,2.357C13.051,88.501,11.995,89.556,10.692,89.556z"/>
	<circle style="fill:#084057;" cx="54.59" cy="78.133" r="16.428"/>
	<circle style="fill:#FFFFFF;" cx="52.947" cy="68.684" r="1.645"/>
	<circle style="fill:#FFFFFF;" cx="45.476" cy="79.211" r="1.645"/>
	<circle style="fill:#FFFFFF;" cx="63.321" cy="75.329" r="1.645"/>
	<circle style="fill:#FFFFFF;" cx="54.593" cy="78.133" r="1.645"/>
	<circle style="fill:#FFFFFF;" cx="56.237" cy="87.199" r="1.645"/>
</g>
<g>
</g>
<g>
</g>
<g>
</g>
<g>
</g>
<g>
</g>
<g>
</g>
<g>
</g>
<g>
</g>
<g>
</g>
<g>
</g>
<g>
</g>
<g>
</g>
<g>
</g>
<g>
</g>
<g>
</g>
</svg>
