<?xml version="1.0" encoding="iso-8859-1"?>
<!-- Generator: Adobe Illustrator 18.0.0, SVG Export Plug-In . SVG Version: 6.00 Build 0)  -->
<!DOCTYPE svg PUBLIC "-//W3C//DTD SVG 1.1//EN" "http://www.w3.org/Graphics/SVG/1.1/DTD/svg11.dtd">
<svg version="1.1" id="Capa_1" xmlns="http://www.w3.org/2000/svg" xmlns:xlink="http://www.w3.org/1999/xlink" x="0px" y="0px"
	 viewBox="0 0 180.761 180.761" style="enable-background:new 0 0 180.761 180.761;" xml:space="preserve">
<g>
	<path style="fill:#FFAC38;" d="M180.761,90.38c0,49.92-40.46,90.38-90.38,90.38C40.46,180.76,0,140.3,0,90.38
		C0,40.47,40.46,0,90.381,0C140.301,0,180.761,40.47,180.761,90.38z"/>
	<path style="fill:#FFCE87;" d="M90.381,172.326c-45.184,0-81.942-36.759-81.942-81.942c0-45.185,36.759-81.944,81.942-81.944
		s81.943,36.76,81.943,81.944C172.324,135.567,135.564,172.326,90.381,172.326z"/>
	<path style="fill:#FFCE87;" d="M90.381,167.326c-42.427,0-76.942-34.517-76.942-76.942c0-42.427,34.516-76.944,76.942-76.944
		c42.427,0,76.943,34.518,76.943,76.944C167.324,132.809,132.808,167.326,90.381,167.326z"/>
	<circle style="fill:#00A1AD;" cx="62.654" cy="61.738" r="5.525"/>
	<circle style="fill:#00A1AD;" cx="109.094" cy="105.84" r="5.525"/>
	<path style="fill:#084057;" d="M128.427,122.505c-3.051,0-5.524,2.473-5.524,5.525c0,3.052,2.474,5.524,5.524,5.524
		c3.052,0,5.525-2.473,5.525-5.524C133.952,124.978,131.479,122.505,128.427,122.505z M128.427,130.387
		c-1.302,0-2.357-1.055-2.357-2.357c0-1.303,1.056-2.358,2.357-2.358c1.303,0,2.358,1.055,2.358,2.358
		C130.785,129.333,129.729,130.387,128.427,130.387z"/>
	<path style="fill:#084057;" d="M85.146,65.352c-3.051,0-5.524,2.473-5.524,5.524c0,3.052,2.474,5.524,5.524,5.524
		c3.052,0,5.525-2.473,5.525-5.524C90.671,67.825,88.197,65.352,85.146,65.352z M85.146,73.234c-1.302,0-2.357-1.055-2.357-2.357
		c0-1.303,1.056-2.357,2.357-2.357c1.303,0,2.358,1.055,2.358,2.357C87.504,72.179,86.448,73.234,85.146,73.234z"/>
	<path style="fill:#084057;" d="M53.19,120.458c-3.051,0-5.524,2.473-5.524,5.524c0,3.052,2.474,5.524,5.524,5.524
		c3.052,0,5.525-2.473,5.525-5.524C58.716,122.931,56.242,120.458,53.19,120.458z M53.19,128.34c-1.302,0-2.357-1.055-2.357-2.357
		c0-1.303,1.056-2.357,2.357-2.357c1.303,0,2.358,1.055,2.358,2.357C55.549,127.286,54.493,128.34,53.19,128.34z"/>
	<path style="fill:#084057;" d="M128.427,45.581c-3.051,0-5.524,2.473-5.524,5.524c0,3.052,2.474,5.524,5.524,5.524
		c3.052,0,5.525-2.473,5.525-5.524C133.952,48.054,131.479,45.581,128.427,45.581z M128.427,53.463
		c-1.302,0-2.357-1.055-2.357-2.357c0-1.303,1.056-2.357,2.357-2.357c1.303,0,2.358,1.055,2.358,2.357
		C130.785,52.409,129.729,53.463,128.427,53.463z"/>
	<circle style="fill:#00A1AD;" cx="68.18" cy="105.84" r="5.525"/>
	<circle style="fill:#00A1AD;" cx="102.897" cy="61.154" r="5.524"/>
	<circle style="fill:#00A1AD;" cx="126.415" cy="72.259" r="5.524"/>
	<g>
		<circle style="fill:#084057;" cx="90.38" cy="137.08" r="16.428"/>
		<circle style="fill:#FFFFFF;" cx="88.737" cy="127.63" r="1.645"/>
		<circle style="fill:#FFFFFF;" cx="81.267" cy="138.158" r="1.645"/>
		<circle style="fill:#FFFFFF;" cx="99.111" cy="134.276" r="1.645"/>
		<circle style="fill:#FFFFFF;" cx="90.383" cy="137.08" r="1.645"/>
		<circle style="fill:#FFFFFF;" cx="92.027" cy="146.146" r="1.645"/>
	</g>
	<g>
		<path style="fill:#FA5138;" d="M105.49,42.387h-30.22c0.97-7.481,7.369-13.25,15.109-13.25
			C98.12,29.137,104.521,34.907,105.49,42.387z"/>
		<path style="fill:#FA6A55;" d="M103.48,42.387h-26.2c0.97-6.359,6.47-11.25,13.1-11.25C97.01,31.137,102.51,36.028,103.48,42.387z
			"/>
	</g>
	<g>
		<path style="fill:#FA5138;" d="M38.253,76.401v30.219c-7.48-0.969-13.25-7.369-13.25-15.109
			C25.003,83.77,30.772,77.37,38.253,76.401z"/>
		<path style="fill:#FA6A55;" d="M38.253,78.411v26.199c-6.359-0.97-11.25-6.47-11.25-13.1
			C27.003,84.88,31.893,79.381,38.253,78.411z"/>
	</g>
	<g>
		<path style="fill:#FA5138;" d="M142.753,106.618V76.399c7.481,0.969,13.25,7.369,13.25,15.109
			C156.003,99.248,150.233,105.649,142.753,106.618z"/>
		<path style="fill:#FA6A55;" d="M142.753,104.608V78.409c6.359,0.97,11.25,6.47,11.25,13.1
			C154.003,98.138,149.112,103.637,142.753,104.608z"/>
	</g>
	<g>
		<path style="fill:#FA5138;" d="M75.274,84.884h30.219c-0.969,7.48-7.369,13.25-15.109,13.25
			C82.644,98.134,76.243,92.365,75.274,84.884z"/>
		<path style="fill:#FA6A55;" d="M77.284,84.884h26.199c-0.97,6.359-6.47,11.25-13.1,11.25
			C83.754,96.134,78.255,91.244,77.284,84.884z"/>
	</g>
</g>
<g>
</g>
<g>
</g>
<g>
</g>
<g>
</g>
<g>
</g>
<g>
</g>
<g>
</g>
<g>
</g>
<g>
</g>
<g>
</g>
<g>
</g>
<g>
</g>
<g>
</g>
<g>
</g>
<g>
</g>
</svg>
