<?xml version="1.0" encoding="iso-8859-1"?>
<!-- Generator: Adobe Illustrator 18.0.0, SVG Export Plug-In . SVG Version: 6.00 Build 0)  -->
<!DOCTYPE svg PUBLIC "-//W3C//DTD SVG 1.1//EN" "http://www.w3.org/Graphics/SVG/1.1/DTD/svg11.dtd">
<svg version="1.1" id="Capa_1" xmlns="http://www.w3.org/2000/svg" xmlns:xlink="http://www.w3.org/1999/xlink" x="0px" y="0px"
	 viewBox="0 0 483.3 483.3" style="enable-background:new 0 0 483.3 483.3;" xml:space="preserve">
<g>
	<g>
		<polygon style="fill:#FA5138;" points="468.65,259.766 468.379,260.217 468.379,354.176 17.03,354.176 17.03,171.996 
			400.249,171.996 402.95,182.607 404.14,187.266 405.34,191.967 419.86,248.996 		"/>
		<rect x="51.652" y="199.428" style="fill:#FFAC38;" width="261.264" height="108.199"/>
		<rect x="51.65" y="97.467" style="fill:#FFAC38;" width="261.12" height="53.58"/>
		<polygon style="fill:#00A1AD;" points="406.783,248.998 367.572,248.998 375.583,217.54 380.189,199.425 394.164,199.425 
			398.77,217.54 		"/>
		<polygon style="fill:#FFAC38;" points="411.958,248.998 379.961,248.998 379.961,199.425 399.339,199.425 403.946,217.54 		"/>
		<polygon style="fill:#00A1AD;" points="384.102,244.857 384.102,203.565 396.12,203.565 399.933,218.56 406.631,244.857 		"/>
		<rect x="321.083" y="199.425" style="fill:#FFAC38;" width="58.878" height="49.573"/>
		<rect x="0" y="323.636" style="fill:#00A1AD;" width="39.74" height="30.54"/>
		<rect x="371.795" y="188.556" style="fill:#FA5138;" width="8.166" height="74.53"/>
		<rect x="43.48" y="97.467" style="fill:#084057;" width="8.17" height="74.53"/>
		<rect x="312.916" y="97.464" style="fill:#084057;" width="8.167" height="74.53"/>
		<rect x="335.782" y="188.556" style="fill:#FA5138;" width="6.21" height="74.53"/>
		<path style="fill:#FFAC38;" d="M321.083,199.425v31.054v83.329v31.054h14.798c4.044-16.387,18.496-28.716,35.913-29.536v-1.518
			v-83.329v-31.054H321.083z"/>
		<rect x="51.647" y="281.465" style="fill:#FA5138;" width="261.269" height="4.703"/>
		<rect x="51.647" y="307.627" style="fill:#FA5138;" width="261.269" height="4.703"/>
		<rect x="39.74" y="349.567" style="fill:#FA5138;" width="394.39" height="4.61"/>
		<rect x="51.65" y="145.967" style="fill:#FA5138;" width="261.12" height="4.61"/>
		<rect x="0" y="349.567" style="opacity:0.5;fill:#084057;" width="39.74" height="4.61"/>
		<polygon style="fill:#FA5138;" points="405.34,191.967 17.03,191.967 17.03,187.266 404.14,187.266 		"/>
		<rect x="379.961" y="248.998" style="fill:#FA5138;" width="31.997" height="4.703"/>
		<rect x="325.582" y="248.998" style="fill:#FFCE87;" width="41.99" height="4.703"/>
		<polygon style="fill:#FFAC38;" points="404.14,187.266 17.03,187.266 17.03,182.607 402.95,182.607 		"/>
		<rect x="325.224" y="203.565" style="fill:#00A1AD;" width="42.431" height="41.292"/>
		<g>
			<path style="fill:#FFFFFF;" d="M70.297,199.428v17.317c0,5.153-4.17,9.333-9.322,9.333c-2.571,0-4.913-1.045-6.594-2.738
				c-1.683-1.683-2.728-4.013-2.728-6.595v-17.317H70.297z"/>
			<path style="fill:#FFFFFF;" d="M107.596,199.428v17.317c0,5.153-4.17,9.333-9.322,9.333c-2.581,0-4.901-1.045-6.594-2.738
				c-1.683-1.683-2.728-4.013-2.728-6.595v-17.317H107.596z"/>
			<path style="fill:#FFFFFF;" d="M144.907,199.428v17.317c0,5.153-4.181,9.333-9.333,9.333c-2.571,0-4.901-1.045-6.584-2.738
				c-1.693-1.683-2.738-4.013-2.738-6.595v-17.317H144.907z"/>
			<path style="fill:#FFFFFF;" d="M182.207,199.428v17.317c0,5.153-4.17,9.333-9.322,9.333c-2.572,0-4.913-1.045-6.595-2.738
				c-1.693-1.683-2.738-4.013-2.738-6.595v-17.317H182.207z"/>
			<path style="fill:#FFFFFF;" d="M219.506,199.428v17.317c0,5.153-4.17,9.333-9.322,9.333c-2.581,0-4.901-1.045-6.594-2.738
				c-1.683-1.683-2.728-4.013-2.728-6.595v-17.317H219.506z"/>
			<path style="fill:#FFFFFF;" d="M256.816,199.428v17.317c0,5.153-4.181,9.333-9.333,9.333c-2.571,0-4.912-1.045-6.595-2.738
				c-1.682-1.683-2.727-4.013-2.727-6.595v-17.317H256.816z"/>
			<path style="fill:#FFFFFF;" d="M294.116,199.428v17.317c0,5.153-4.18,9.333-9.323,9.333c-2.57,0-4.912-1.045-6.595-2.738
				c-1.693-1.683-2.738-4.013-2.738-6.595v-17.317H294.116z"/>
			<path style="fill:#FA5138;" d="M312.917,199.428v18.968c-0.094-0.533-0.146-1.087-0.146-1.651v-17.317H312.917z"/>
			<path style="fill:#00A1AD;" d="M88.952,199.428v17.317c0,5.153-4.181,9.333-9.323,9.333c-2.581,0-4.912-1.045-6.595-2.738
				c-1.693-1.683-2.738-4.013-2.738-6.595v-17.317H88.952z"/>
			<path style="fill:#00A1AD;" d="M126.251,199.428v17.317c0,5.153-4.17,9.333-9.322,9.333c-2.571,0-4.912-1.045-6.595-2.738
				c-1.693-1.683-2.738-4.013-2.738-6.595v-17.317H126.251z"/>
			<path style="fill:#00A1AD;" d="M163.551,199.428v17.317c0,5.153-4.17,9.333-9.322,9.333c-2.581,0-4.902-1.045-6.595-2.738
				c-1.682-1.683-2.727-4.013-2.727-6.595v-17.317H163.551z"/>
			<path style="fill:#00A1AD;" d="M200.861,199.428v17.317c0,5.153-4.18,9.333-9.333,9.333c-2.571,0-4.901-1.045-6.585-2.738
				c-1.692-1.683-2.737-4.013-2.737-6.595v-17.317H200.861z"/>
			<path style="fill:#00A1AD;" d="M238.161,199.428v17.317c0,5.153-4.181,9.333-9.323,9.333c-2.571,0-4.912-1.045-6.594-2.738
				c-1.693-1.683-2.738-4.013-2.738-6.595v-17.317H238.161z"/>
			<path style="fill:#00A1AD;" d="M275.46,199.428v17.317c0,5.153-4.17,9.333-9.322,9.333c-2.581,0-4.901-1.045-6.595-2.738
				c-1.682-1.683-2.728-4.013-2.728-6.595v-17.317H275.46z"/>
			<path style="fill:#00A1AD;" d="M312.77,199.428v17.317c0,5.153-4.181,9.333-9.332,9.333c-2.571,0-4.912-1.045-6.594-2.738
				c-1.683-1.683-2.729-4.013-2.729-6.595v-17.317H312.77z"/>
		</g>
		<g>
			<path style="fill:#FFFFFF;" d="M100.637,105.301h10.406v3.396h-6.361v10.917h5.968v3.436h-5.968v16.806h-4.044V105.301z"/>
			<path style="fill:#FFFFFF;" d="M114.911,114.686c0-3.927,0.707-6.623,2.12-8.089c1.113-1.152,2.729-1.728,4.85-1.728
				c3.089,0,5.065,1.27,5.929,3.809c0.511,1.505,0.766,3.508,0.766,6.008v15.235c0,3.6-0.504,6.221-1.512,7.863
				c-1.008,1.643-2.771,2.464-5.291,2.464c-2.52,0-4.293-0.825-5.321-2.474c-1.027-1.649-1.541-4.267-1.541-7.854V114.686z
				 M124.511,114.451c0-2.212-0.177-3.78-0.53-4.703c-0.353-0.922-1.067-1.384-2.14-1.384c-1.074,0-1.82,0.471-2.238,1.414
				c-0.419,0.942-0.628,2.493-0.628,4.653v15.53c0,2.631,0.183,4.421,0.55,5.37c0.366,0.949,1.106,1.423,2.219,1.423
				c1.112,0,1.852-0.481,2.218-1.443c0.366-0.962,0.55-2.746,0.55-5.35V114.451z"/>
			<path style="fill:#FFFFFF;" d="M133.444,114.686c0-3.927,0.707-6.623,2.12-8.089c1.113-1.152,2.729-1.728,4.85-1.728
				c3.089,0,5.065,1.27,5.929,3.809c0.511,1.505,0.766,3.508,0.766,6.008v15.235c0,3.6-0.504,6.221-1.512,7.863
				s-2.771,2.464-5.291,2.464c-2.52,0-4.293-0.825-5.321-2.474c-1.027-1.649-1.541-4.267-1.541-7.854V114.686z M143.045,114.451
				c0-2.212-0.177-3.78-0.53-4.703c-0.353-0.922-1.067-1.384-2.14-1.384c-1.074,0-1.82,0.471-2.238,1.414
				c-0.419,0.942-0.628,2.493-0.628,4.653v15.53c0,2.631,0.183,4.421,0.55,5.37c0.366,0.949,1.106,1.423,2.219,1.423
				c1.112,0,1.852-0.481,2.218-1.443c0.366-0.962,0.55-2.746,0.55-5.35V114.451z"/>
			<path style="fill:#FFFFFF;" d="M152.351,105.301h6.499c2.644,0,4.463,0.815,5.458,2.444c0.995,1.63,1.492,3.943,1.492,6.94
				l0.02,15.177c0,3.547-0.543,6.099-1.629,7.657s-2.913,2.336-5.478,2.336h-6.361V105.301z M161.755,114.588
				c0-2.16-0.255-3.71-0.766-4.653c-0.511-0.942-1.348-1.414-2.513-1.414h-2.081v28.056h2.081c0.785,0,1.4-0.157,1.846-0.471
				c0.955-0.68,1.433-2.552,1.433-5.615V114.588z"/>
			<path style="fill:#FFFFFF;" d="M178.601,105.301h11.407v3.377h-3.554v31.178h-4.044v-31.178h-3.809V105.301z"/>
			<path style="fill:#FFFFFF;" d="M193.385,105.301h7.245c2.055,0,3.534,0.426,4.437,1.276c0.903,0.851,1.446,2.297,1.63,4.339
				c0.079,0.838,0.118,2.144,0.118,3.917s-0.232,3.262-0.697,4.466c-0.465,1.205-1.286,1.983-2.464,2.336
				c0.864,0.144,1.519,0.599,1.963,1.365c0.445,0.766,0.759,1.983,0.942,3.651c0.183,1.669,0.275,4.149,0.275,7.441
				s0.105,5.212,0.314,5.762h-4.044c-0.21-0.419-0.314-4.3-0.314-11.643c0-2.474-0.242-3.91-0.727-4.31
				c-0.484-0.399-1.217-0.599-2.199-0.599l-2.415-0.138v16.688h-4.064V105.301z M202.789,113.763c0-2.657-0.239-4.195-0.716-4.614
				c-0.478-0.418-1.168-0.628-2.071-0.628h-2.553v11.663h2.592c0.785,0,1.361-0.15,1.728-0.452s0.628-0.877,0.786-1.728
				c0.157-0.851,0.235-2.186,0.235-4.005V113.763z"/>
			<path style="fill:#FFFFFF;" d="M221.5,105.301h4.044v25.681c0,3.233-0.507,5.589-1.521,7.068
				c-1.015,1.479-2.771,2.218-5.271,2.218s-4.267-0.739-5.301-2.218c-1.034-1.479-1.551-3.835-1.551-7.068v-25.681h4.064v25.582
				c0,2.304,0.095,3.682,0.285,4.133c0.19,0.452,0.39,0.809,0.599,1.07c0.366,0.498,1.001,0.746,1.904,0.746
				s1.571-0.275,2.002-0.825c0.432-0.55,0.664-1.368,0.697-2.454c0.032-1.086,0.049-1.97,0.049-2.65V105.301z"/>
			<path style="fill:#FFFFFF;" d="M230.61,115.275c0-2.618,0.216-4.542,0.648-5.772c0.432-1.23,0.903-2.133,1.414-2.709
				c1.112-1.256,2.735-1.891,4.869-1.904c2.984,0.013,4.908,1.329,5.772,3.946c0.498,1.505,0.746,3.508,0.746,6.008v3.828h-3.985
				v-3.848c0-2.212-0.122-3.708-0.363-4.486c-0.243-0.779-0.534-1.296-0.874-1.551c-0.34-0.255-0.772-0.383-1.295-0.383
				c-1.087,0-1.836,0.514-2.248,1.542c-0.413,1.027-0.619,2.647-0.619,4.859v14.961c0,2.618,0.187,4.447,0.56,5.487
				s1.093,1.561,2.16,1.561s1.78-0.523,2.14-1.571c0.36-1.047,0.54-2.879,0.54-5.498v-3.828h4.025v3.789
				c0,3.625-0.495,6.292-1.482,8c-0.989,1.708-2.713,2.562-5.173,2.562c-2.461,0-4.215-0.88-5.262-2.641
				c-1.047-1.76-1.571-4.414-1.571-7.961V115.275z"/>
			<path style="fill:#FFFFFF;" d="M259.235,105.301h4.083l-6.439,17.062l6.891,17.493h-4.241l-6.4-16.531v16.531h-4.104v-34.555
				h4.064v16.473L259.235,105.301z"/>
		</g>
		<circle style="fill:#00A1AD;" cx="373.646" cy="354.178" r="31.654"/>
		<path style="opacity:0.5;fill:#084057;" d="M373.645,375.305c-11.648,0-21.126-9.477-21.126-21.127
			c0-11.649,9.477-21.127,21.126-21.127c11.65,0,21.128,9.478,21.128,21.127C394.773,365.828,385.295,375.305,373.645,375.305z"/>
		<path style="fill:#084057;" d="M373.646,370.305c-8.892,0-16.127-7.234-16.127-16.127c0-8.893,7.235-16.127,16.127-16.127
			c8.893,0,16.128,7.234,16.128,16.127C389.774,363.071,382.539,370.305,373.646,370.305z"/>
		<path style="opacity:0.7;fill:#FFFFFF;" d="M373.344,322.527v63.31c-17.48,0-31.65-14.18-31.65-31.66
			C341.694,336.697,355.864,322.527,373.344,322.527z"/>
		<path style="fill:#00A1AD;" d="M114.96,354.176c0,17.48-14.18,31.66-31.66,31.66c-17.48,0-31.65-14.18-31.65-31.66
			c0-17.48,14.17-31.65,31.65-31.65C100.78,322.527,114.96,336.697,114.96,354.176z"/>
		<path style="opacity:0.5;fill:#084057;" d="M83.301,375.305c-11.649,0-21.126-9.477-21.126-21.127
			c0-11.649,9.477-21.127,21.126-21.127c11.65,0,21.128,9.478,21.128,21.127C104.428,365.828,94.951,375.305,83.301,375.305z"/>
		<path style="fill:#084057;" d="M83.301,370.305c-8.892,0-16.126-7.234-16.126-16.127c0-8.893,7.234-16.127,16.126-16.127
			c8.893,0,16.128,7.234,16.128,16.127C99.428,363.071,92.193,370.305,83.301,370.305z"/>
		<path style="opacity:0.7;fill:#FFFFFF;" d="M83.3,322.527v63.31c-17.48,0-31.65-14.18-31.65-31.66
			C51.65,336.697,65.82,322.527,83.3,322.527z"/>
		<rect x="325.224" y="203.565" style="opacity:0.7;fill:#FFFFFF;" width="21.215" height="41.292"/>
		<rect x="384.102" y="203.565" style="opacity:0.7;fill:#FFFFFF;" width="6.467" height="41.292"/>
	</g>
	<rect x="434.129" y="323.636" style="fill:#00A1AD;" width="49.171" height="30.54"/>
	<rect x="434.129" y="349.567" style="opacity:0.5;fill:#084057;" width="49.171" height="4.61"/>
</g>
<g>
</g>
<g>
</g>
<g>
</g>
<g>
</g>
<g>
</g>
<g>
</g>
<g>
</g>
<g>
</g>
<g>
</g>
<g>
</g>
<g>
</g>
<g>
</g>
<g>
</g>
<g>
</g>
<g>
</g>
</svg>
